<?xml version="1.0" encoding="UTF-8" standalone="no"?>
<!-- Created with Inkscape (http://www.inkscape.org/) -->

<svg
   xmlns:dc="http://purl.org/dc/elements/1.1/"
   xmlns:cc="http://creativecommons.org/ns#"
   xmlns:rdf="http://www.w3.org/1999/02/22-rdf-syntax-ns#"
   xmlns:svg="http://www.w3.org/2000/svg"
   xmlns="http://www.w3.org/2000/svg"
   xmlns:xlink="http://www.w3.org/1999/xlink"
   xmlns:sodipodi="http://sodipodi.sourceforge.net/DTD/sodipodi-0.dtd"
   xmlns:inkscape="http://www.inkscape.org/namespaces/inkscape"
   width="744.09448819"
   height="1052.3622047"
   id="svg2"
   version="1.1"
   inkscape:version="0.48.2 r9819"
   sodipodi:docname="equiangular.svg">
  <defs
     id="defs4">
    <marker
       inkscape:stockid="Arrow2Lend"
       orient="auto"
       refY="0.0"
       refX="0.0"
       id="Arrow2Lend"
       style="overflow:visible;">
      <path
         id="path4227"
         style="font-size:12.0;fill-rule:evenodd;stroke-width:0.62500000;stroke-linejoin:round;"
         d="M 8.7185878,4.0337352 L -2.2072895,0.016013256 L 8.7185884,-4.0017078 C 6.9730900,-1.6296469 6.9831476,1.6157441 8.7185878,4.0337352 z "
         transform="scale(1.1) rotate(180) translate(1,0)" />
    </marker>
    <marker
       inkscape:stockid="Arrow1Lend"
       orient="auto"
       refY="0.0"
       refX="0.0"
       id="Arrow1Lend"
       style="overflow:visible;">
      <path
         id="path4209"
         d="M 0.0,0.0 L 5.0,-5.0 L -12.5,0.0 L 5.0,5.0 L 0.0,0.0 z "
         style="fill-rule:evenodd;stroke:#000000;stroke-width:1.0pt;marker-start:none;"
         transform="scale(0.8) rotate(180) translate(12.5,0)" />
    </marker>
  </defs>
  <sodipodi:namedview
     id="base"
     pagecolor="#ffffff"
     bordercolor="#666666"
     borderopacity="1.0"
     inkscape:pageopacity="0.0"
     inkscape:pageshadow="2"
     inkscape:zoom="0.64"
     inkscape:cx="345.85001"
     inkscape:cy="624.79089"
     inkscape:document-units="px"
     inkscape:current-layer="layer2"
     showgrid="false"
     inkscape:window-width="1139"
     inkscape:window-height="837"
     inkscape:window-x="132"
     inkscape:window-y="194"
     inkscape:window-maximized="0"
     showguides="true"
     inkscape:guide-bbox="true" />
  <metadata
     id="metadata7">
    <rdf:RDF>
      <cc:Work
         rdf:about="">
        <dc:format>image/svg+xml</dc:format>
        <dc:type
           rdf:resource="http://purl.org/dc/dcmitype/StillImage" />
        <dc:title></dc:title>
      </cc:Work>
    </rdf:RDF>
  </metadata>
  <g
     inkscape:groupmode="layer"
     id="layer2"
     inkscape:label="Layer"
     style="display:inline">
    <g
       id="g7862"
       transform="matrix(0.99977014,-0.02143991,0.02143991,0.99977014,-1.726261,7.9960829)"
       style="opacity:0.1">
      <path
         inkscape:tile-y0="-484.0088"
         inkscape:tile-x0="97.689806"
         inkscape:tile-h="1137.0277"
         inkscape:tile-w="548.71487"
         inkscape:tile-cy="84.505045"
         inkscape:tile-cx="372.04724"
         inkscape:connector-curvature="0"
         id="path7721"
         d="M 646.40468,-484.0088 C 97.689806,653.01889 97.689806,653.01889 97.689806,653.01889"
         style="fill:none;stroke:#000000;stroke-width:2px;stroke-linecap:butt;stroke-linejoin:miter;stroke-opacity:1" />
      <use
         height="1052.3622"
         width="744.09448"
         id="use7761"
         xlink:href="#path7721"
         inkscape:tiled-clone-of="#path7721"
         y="0"
         x="0" />
      <use
         height="1052.3622"
         width="744.09448"
         id="use7763"
         transform="matrix(0.99888987,-0.04710645,0.04710645,0.99888987,-3.5677138,17.619636)"
         xlink:href="#path7721"
         inkscape:tiled-clone-of="#path7721"
         y="0"
         x="0" />
      <use
         height="1052.3622"
         width="744.09448"
         id="use7765"
         transform="matrix(0.99556196,-0.09410831,0.09410831,0.99556196,-6.3014684,35.387775)"
         xlink:href="#path7721"
         inkscape:tiled-clone-of="#path7721"
         y="0"
         x="0" />
      <use
         height="1052.3622"
         width="744.09448"
         id="use7767"
         transform="matrix(0.99002366,-0.14090123,0.14090123,0.99002366,-8.1951943,53.264966)"
         xlink:href="#path7721"
         inkscape:tiled-clone-of="#path7721"
         y="0"
         x="0" />
      <use
         height="1052.3622"
         width="744.09448"
         id="use7769"
         transform="matrix(0.98228725,-0.18738131,0.18738131,0.98228725,-9.2446869,71.211518)"
         xlink:href="#path7721"
         inkscape:tiled-clone-of="#path7721"
         y="0"
         x="0" />
      <use
         height="1052.3622"
         width="744.09448"
         id="use7771"
         transform="matrix(0.97236992,-0.23344536,0.23344536,0.97236992,-9.447616,89.187585)"
         xlink:href="#path7721"
         inkscape:tiled-clone-of="#path7721"
         y="0"
         x="0" />
      <use
         height="1052.3622"
         width="744.09448"
         id="use7773"
         transform="matrix(0.96029369,-0.27899111,0.27899111,0.96029369,-8.8035312,107.15326)"
         xlink:href="#path7721"
         inkscape:tiled-clone-of="#path7721"
         y="0"
         x="0" />
      <use
         height="1052.3622"
         width="744.09448"
         id="use7775"
         transform="matrix(0.94608536,-0.32391742,0.32391742,0.94608536,-7.3138624,125.06864)"
         xlink:href="#path7721"
         inkscape:tiled-clone-of="#path7721"
         y="0"
         x="0" />
      <use
         height="1052.3622"
         width="744.09448"
         id="use7777"
         transform="matrix(0.92977649,-0.36812455,0.36812455,0.92977649,-4.9819171,142.89397)"
         xlink:href="#path7721"
         inkscape:tiled-clone-of="#path7721"
         y="0"
         x="0" />
      <use
         height="1052.3622"
         width="744.09448"
         id="use7779"
         transform="matrix(0.91140328,-0.41151436,0.41151436,0.91140328,-1.8128727,160.58965)"
         xlink:href="#path7721"
         inkscape:tiled-clone-of="#path7721"
         y="0"
         x="0" />
      <use
         height="1052.3622"
         width="744.09448"
         id="use7781"
         transform="matrix(0.89100652,-0.4539905,0.4539905,0.89100652,2.1862346,178.11641)"
         xlink:href="#path7721"
         inkscape:tiled-clone-of="#path7721"
         y="0"
         x="0" />
      <use
         height="1052.3622"
         width="744.09448"
         id="use7783"
         transform="matrix(0.86863151,-0.49545867,0.49545867,0.86863151,7.0065258,195.43533)"
         xlink:href="#path7721"
         inkscape:tiled-clone-of="#path7721"
         y="0"
         x="0" />
      <use
         height="1052.3622"
         width="744.09448"
         id="use7785"
         transform="matrix(0.84432793,-0.53582679,0.53582679,0.84432793,12.637299,212.50796)"
         xlink:href="#path7721"
         inkscape:tiled-clone-of="#path7721"
         y="0"
         x="0" />
      <use
         height="1052.3622"
         width="744.09448"
         id="use7787"
         transform="matrix(0.81814972,-0.57500525,0.57500525,0.81814972,19.066052,229.29639)"
         xlink:href="#path7721"
         inkscape:tiled-clone-of="#path7721"
         y="0"
         x="0" />
      <use
         height="1052.3622"
         width="744.09448"
         id="use7789"
         transform="matrix(0.79015501,-0.61290705,0.61290705,0.79015501,26.278511,245.76334)"
         xlink:href="#path7721"
         inkscape:tiled-clone-of="#path7721"
         y="0"
         x="0" />
      <use
         height="1052.3622"
         width="744.09448"
         id="use7791"
         transform="matrix(0.76040597,-0.64944805,0.64944805,0.76040597,34.258663,261.87226)"
         xlink:href="#path7721"
         inkscape:tiled-clone-of="#path7721"
         y="0"
         x="0" />
      <use
         height="1052.3622"
         width="744.09448"
         id="use7793"
         transform="matrix(0.72896863,-0.68454711,0.68454711,0.72896863,42.988791,277.58738)"
         xlink:href="#path7721"
         inkscape:tiled-clone-of="#path7721"
         y="0"
         x="0" />
      <use
         height="1052.3622"
         width="744.09448"
         id="use7795"
         transform="matrix(0.6959128,-0.7181263,0.7181263,0.6959128,52.449511,292.87381)"
         xlink:href="#path7721"
         inkscape:tiled-clone-of="#path7721"
         y="0"
         x="0" />
      <use
         height="1052.3622"
         width="744.09448"
         id="use7797"
         transform="matrix(0.66131187,-0.75011107,0.75011107,0.66131187,62.619817,307.69761)"
         xlink:href="#path7721"
         inkscape:tiled-clone-of="#path7721"
         y="0"
         x="0" />
    </g>
    <rect
       style="fill:#ffffff;stroke:none;stroke-width:2;stroke-miterlimit:4;stroke-dasharray:2, 12;stroke-dashoffset:0"
       id="rect8758"
       width="609.375"
       height="660.9375"
       x="76.5625"
       y="-577.32532" />
  </g>
  <g
     inkscape:groupmode="layer"
     id="layer3"
     inkscape:label="Layer#1"
     style="display:inline"
     sodipodi:insensitive="true">
    <rect
       y="653.19415"
       x="99.781219"
       height="8.5714283"
       width="20"
       id="rect8510"
       style="opacity:0.15800009;fill:none;stroke:#000000;stroke-width:2;stroke-miterlimit:4;stroke-dasharray:none;display:inline" />
    <path
       transform="matrix(1.199005,0,0,1.199005,-0.591473,-117.12266)"
       d="m 94.642859,646.02289 a 2.5892856,2.5892856 0 1 1 -5.178571,0 2.5892856,2.5892856 0 1 1 5.178571,0 z"
       sodipodi:ry="2.5892856"
       sodipodi:rx="2.5892856"
       sodipodi:cy="646.02289"
       sodipodi:cx="92.053574"
       id="path8512"
       style="opacity:0.15800009;fill:#000000;stroke:none;display:inline"
       sodipodi:type="arc" />
    <g
       style="opacity:0.15800009;display:inline"
       id="g8514"
       inkscape:tile-x0="82.85714"
       inkscape:tile-y0="641.04077"
       transform="translate(45.819228,22.097087)">
      <rect
         y="641.04077"
         x="82.85714"
         height="8.5714283"
         width="20"
         id="rect8516"
         style="fill:none;stroke:#000000;stroke-width:2;stroke-miterlimit:4;stroke-dasharray:none" />
      <path
         transform="matrix(1.199005,0,0,1.199005,-17.515555,-129.27606)"
         d="m 94.642859,646.02289 a 2.5892856,2.5892856 0 1 1 -5.178571,0 2.5892856,2.5892856 0 1 1 5.178571,0 z"
         sodipodi:ry="2.5892856"
         sodipodi:rx="2.5892856"
         sodipodi:cy="646.02289"
         sodipodi:cx="92.053574"
         id="path8518"
         style="fill:#000000;stroke:none"
         sodipodi:type="arc" />
    </g>
    <g
       style="opacity:0.15800009;display:inline"
       id="g8520"
       inkscape:tile-x0="82.85714"
       inkscape:tile-y0="641.04077"
       transform="translate(73.609519,35.355339)">
      <rect
         y="641.04077"
         x="82.85714"
         height="8.5714283"
         width="20"
         id="rect8522"
         style="fill:none;stroke:#000000;stroke-width:2;stroke-miterlimit:4;stroke-dasharray:none" />
      <path
         transform="matrix(1.199005,0,0,1.199005,-17.515555,-129.27606)"
         d="m 94.642859,646.02289 a 2.5892856,2.5892856 0 1 1 -5.178571,0 2.5892856,2.5892856 0 1 1 5.178571,0 z"
         sodipodi:ry="2.5892856"
         sodipodi:rx="2.5892856"
         sodipodi:cy="646.02289"
         sodipodi:cx="92.053574"
         id="path8524"
         style="fill:#000000;stroke:none"
         sodipodi:type="arc" />
    </g>
    <g
       style="opacity:0.15800009;display:inline"
       id="g8526"
       inkscape:tile-x0="82.85714"
       inkscape:tile-y0="641.04077"
       transform="translate(102.50467,44.194174)">
      <rect
         y="641.04077"
         x="82.85714"
         height="8.5714283"
         width="20"
         id="rect8528"
         style="fill:none;stroke:#000000;stroke-width:2;stroke-miterlimit:4;stroke-dasharray:none" />
      <path
         transform="matrix(1.199005,0,0,1.199005,-17.515555,-129.27606)"
         d="m 94.642859,646.02289 a 2.5892856,2.5892856 0 1 1 -5.178571,0 2.5892856,2.5892856 0 1 1 5.178571,0 z"
         sodipodi:ry="2.5892856"
         sodipodi:rx="2.5892856"
         sodipodi:cy="646.02289"
         sodipodi:cx="92.053574"
         id="path8530"
         style="fill:#000000;stroke:none"
         sodipodi:type="arc" />
    </g>
    <g
       style="opacity:0.15800009;display:inline"
       id="g8532"
       inkscape:tile-x0="82.85714"
       inkscape:tile-y0="641.04077"
       transform="translate(130.29495,50.8233)">
      <rect
         y="641.04077"
         x="82.85714"
         height="8.5714283"
         width="20"
         id="rect8534"
         style="fill:none;stroke:#000000;stroke-width:2;stroke-miterlimit:4;stroke-dasharray:none" />
      <path
         transform="matrix(1.199005,0,0,1.199005,-17.515555,-129.27606)"
         d="m 94.642859,646.02289 a 2.5892856,2.5892856 0 1 1 -5.178571,0 2.5892856,2.5892856 0 1 1 5.178571,0 z"
         sodipodi:ry="2.5892856"
         sodipodi:rx="2.5892856"
         sodipodi:cy="646.02289"
         sodipodi:cx="92.053574"
         id="path8536"
         style="fill:#000000;stroke:none"
         sodipodi:type="arc" />
    </g>
    <g
       style="opacity:0.15800009;display:inline"
       id="g8538"
       inkscape:tile-x0="82.85714"
       inkscape:tile-y0="641.04077"
       transform="translate(159.1901,56.347572)">
      <rect
         y="641.04077"
         x="82.85714"
         height="8.5714283"
         width="20"
         id="rect8540"
         style="fill:none;stroke:#000000;stroke-width:2;stroke-miterlimit:4;stroke-dasharray:none" />
      <path
         transform="matrix(1.199005,0,0,1.199005,-17.515555,-129.27606)"
         d="m 94.642859,646.02289 a 2.5892856,2.5892856 0 1 1 -5.178571,0 2.5892856,2.5892856 0 1 1 5.178571,0 z"
         sodipodi:ry="2.5892856"
         sodipodi:rx="2.5892856"
         sodipodi:cy="646.02289"
         sodipodi:cx="92.053574"
         id="path8542"
         style="fill:#000000;stroke:none"
         sodipodi:type="arc" />
    </g>
    <g
       style="opacity:0.15800009;display:inline"
       id="g8544"
       inkscape:tile-x0="82.85714"
       inkscape:tile-y0="641.04077"
       transform="translate(188.08525,59.662135)">
      <rect
         y="641.04077"
         x="82.85714"
         height="8.5714283"
         width="20"
         id="rect8546"
         style="fill:none;stroke:#000000;stroke-width:2;stroke-miterlimit:4;stroke-dasharray:none" />
      <path
         transform="matrix(1.199005,0,0,1.199005,-17.515555,-129.27606)"
         d="m 94.642859,646.02289 a 2.5892856,2.5892856 0 1 1 -5.178571,0 2.5892856,2.5892856 0 1 1 5.178571,0 z"
         sodipodi:ry="2.5892856"
         sodipodi:rx="2.5892856"
         sodipodi:cy="646.02289"
         sodipodi:cx="92.053574"
         id="path8548"
         style="fill:#000000;stroke:none"
         sodipodi:type="arc" />
    </g>
    <g
       style="opacity:0.15800009;display:inline"
       id="g8550"
       inkscape:tile-x0="82.85714"
       inkscape:tile-y0="641.04077"
       transform="translate(216.98039,66.291261)">
      <rect
         y="641.04077"
         x="82.85714"
         height="8.5714283"
         width="20"
         id="rect8552"
         style="fill:none;stroke:#000000;stroke-width:2;stroke-miterlimit:4;stroke-dasharray:none" />
      <path
         transform="matrix(1.199005,0,0,1.199005,-17.515555,-129.27606)"
         d="m 94.642859,646.02289 a 2.5892856,2.5892856 0 1 1 -5.178571,0 2.5892856,2.5892856 0 1 1 5.178571,0 z"
         sodipodi:ry="2.5892856"
         sodipodi:rx="2.5892856"
         sodipodi:cy="646.02289"
         sodipodi:cx="92.053574"
         id="path8554"
         style="fill:#000000;stroke:none"
         sodipodi:type="arc" />
    </g>
    <g
       style="opacity:0.15800009;display:inline"
       id="g8556"
       inkscape:tile-x0="82.85714"
       inkscape:tile-y0="641.04077"
       transform="translate(246.98039,68.50097)">
      <rect
         y="641.04077"
         x="82.85714"
         height="8.5714283"
         width="20"
         id="rect8558"
         style="fill:none;stroke:#000000;stroke-width:2;stroke-miterlimit:4;stroke-dasharray:none" />
      <path
         transform="matrix(1.199005,0,0,1.199005,-17.515555,-129.27606)"
         d="m 94.642859,646.02289 a 2.5892856,2.5892856 0 1 1 -5.178571,0 2.5892856,2.5892856 0 1 1 5.178571,0 z"
         sodipodi:ry="2.5892856"
         sodipodi:rx="2.5892856"
         sodipodi:cy="646.02289"
         sodipodi:cx="92.053574"
         id="path8560"
         style="fill:#000000;stroke:none"
         sodipodi:type="arc" />
    </g>
    <g
       style="opacity:0.15800009;display:inline"
       id="g8562"
       inkscape:tile-x0="82.85714"
       inkscape:tile-y0="641.04077"
       transform="translate(275.87554,71.815533)">
      <rect
         y="641.04077"
         x="82.85714"
         height="8.5714283"
         width="20"
         id="rect8564"
         style="fill:none;stroke:#000000;stroke-width:2;stroke-miterlimit:4;stroke-dasharray:none" />
      <path
         transform="matrix(1.199005,0,0,1.199005,-17.515555,-129.27606)"
         d="m 94.642859,646.02289 a 2.5892856,2.5892856 0 1 1 -5.178571,0 2.5892856,2.5892856 0 1 1 5.178571,0 z"
         sodipodi:ry="2.5892856"
         sodipodi:rx="2.5892856"
         sodipodi:cy="646.02289"
         sodipodi:cx="92.053574"
         id="path8566"
         style="fill:#000000;stroke:none"
         sodipodi:type="arc" />
    </g>
    <g
       style="opacity:0.15800009;display:inline"
       id="g8568"
       inkscape:tile-x0="82.85714"
       inkscape:tile-y0="641.04077"
       transform="translate(306.84635,69.53125)">
      <rect
         y="641.04077"
         x="82.85714"
         height="8.5714283"
         width="20"
         id="rect8570"
         style="fill:none;stroke:#000000;stroke-width:2;stroke-miterlimit:4;stroke-dasharray:none" />
      <path
         transform="matrix(1.199005,0,0,1.199005,-17.515555,-129.27606)"
         d="m 94.642859,646.02289 a 2.5892856,2.5892856 0 1 1 -5.178571,0 2.5892856,2.5892856 0 1 1 5.178571,0 z"
         sodipodi:ry="2.5892856"
         sodipodi:rx="2.5892856"
         sodipodi:cy="646.02289"
         sodipodi:cx="92.053574"
         id="path8572"
         style="fill:#000000;stroke:none"
         sodipodi:type="arc" />
    </g>
    <g
       style="opacity:0.15800009;display:inline"
       id="g8574"
       inkscape:tile-x0="82.85714"
       inkscape:tile-y0="641.04077"
       transform="translate(336.0651,66.40625)">
      <rect
         y="641.04077"
         x="82.85714"
         height="8.5714283"
         width="20"
         id="rect8576"
         style="fill:none;stroke:#000000;stroke-width:2;stroke-miterlimit:4;stroke-dasharray:none" />
      <path
         transform="matrix(1.199005,0,0,1.199005,-17.515555,-129.27606)"
         d="m 94.642859,646.02289 a 2.5892856,2.5892856 0 1 1 -5.178571,0 2.5892856,2.5892856 0 1 1 5.178571,0 z"
         sodipodi:ry="2.5892856"
         sodipodi:rx="2.5892856"
         sodipodi:cy="646.02289"
         sodipodi:cx="92.053574"
         id="path8578"
         style="fill:#000000;stroke:none"
         sodipodi:type="arc" />
    </g>
    <g
       style="opacity:0.15800009;display:inline"
       id="g8580"
       inkscape:tile-x0="82.85714"
       inkscape:tile-y0="641.04077"
       transform="translate(366.0651,62.890625)">
      <rect
         y="641.04077"
         x="82.85714"
         height="8.5714283"
         width="20"
         id="rect8582"
         style="fill:none;stroke:#000000;stroke-width:2;stroke-miterlimit:4;stroke-dasharray:none" />
      <path
         transform="matrix(1.199005,0,0,1.199005,-17.515555,-129.27606)"
         d="m 94.642859,646.02289 a 2.5892856,2.5892856 0 1 1 -5.178571,0 2.5892856,2.5892856 0 1 1 5.178571,0 z"
         sodipodi:ry="2.5892856"
         sodipodi:rx="2.5892856"
         sodipodi:cy="646.02289"
         sodipodi:cx="92.053574"
         id="path8584"
         style="fill:#000000;stroke:none"
         sodipodi:type="arc" />
    </g>
    <g
       style="opacity:0.15800009;display:inline"
       id="g8586"
       inkscape:tile-x0="82.85714"
       inkscape:tile-y0="641.04077"
       transform="translate(395.28385,59.765625)">
      <rect
         y="641.04077"
         x="82.85714"
         height="8.5714283"
         width="20"
         id="rect8588"
         style="fill:none;stroke:#000000;stroke-width:2;stroke-miterlimit:4;stroke-dasharray:none" />
      <path
         transform="matrix(1.199005,0,0,1.199005,-17.515555,-129.27606)"
         d="m 94.642859,646.02289 a 2.5892856,2.5892856 0 1 1 -5.178571,0 2.5892856,2.5892856 0 1 1 5.178571,0 z"
         sodipodi:ry="2.5892856"
         sodipodi:rx="2.5892856"
         sodipodi:cy="646.02289"
         sodipodi:cx="92.053574"
         id="path8590"
         style="fill:#000000;stroke:none"
         sodipodi:type="arc" />
    </g>
    <g
       style="opacity:0.15800009;display:inline"
       id="g8592"
       inkscape:tile-x0="82.85714"
       inkscape:tile-y0="641.04077"
       transform="translate(424.11197,52.734375)">
      <rect
         y="641.04077"
         x="82.85714"
         height="8.5714283"
         width="20"
         id="rect8594"
         style="fill:none;stroke:#000000;stroke-width:2;stroke-miterlimit:4;stroke-dasharray:none" />
      <path
         transform="matrix(1.199005,0,0,1.199005,-17.515555,-129.27606)"
         d="m 94.642859,646.02289 a 2.5892856,2.5892856 0 1 1 -5.178571,0 2.5892856,2.5892856 0 1 1 5.178571,0 z"
         sodipodi:ry="2.5892856"
         sodipodi:rx="2.5892856"
         sodipodi:cy="646.02289"
         sodipodi:cx="92.053574"
         id="path8596"
         style="fill:#000000;stroke:none"
         sodipodi:type="arc" />
    </g>
    <g
       style="opacity:0.15800009;display:inline"
       id="g8598"
       inkscape:tile-x0="82.85714"
       inkscape:tile-y0="641.04077"
       transform="translate(452.54947,45.703125)">
      <rect
         y="641.04077"
         x="82.85714"
         height="8.5714283"
         width="20"
         id="rect8600"
         style="fill:none;stroke:#000000;stroke-width:2;stroke-miterlimit:4;stroke-dasharray:none" />
      <path
         transform="matrix(1.199005,0,0,1.199005,-17.515555,-129.27606)"
         d="m 94.642859,646.02289 a 2.5892856,2.5892856 0 1 1 -5.178571,0 2.5892856,2.5892856 0 1 1 5.178571,0 z"
         sodipodi:ry="2.5892856"
         sodipodi:rx="2.5892856"
         sodipodi:cy="646.02289"
         sodipodi:cx="92.053574"
         id="path8602"
         style="fill:#000000;stroke:none"
         sodipodi:type="arc" />
    </g>
    <g
       style="opacity:0.15800009;display:inline"
       id="g8604"
       inkscape:tile-x0="82.85714"
       inkscape:tile-y0="641.04077"
       transform="translate(480.98697,37.109375)">
      <rect
         y="641.04077"
         x="82.85714"
         height="8.5714283"
         width="20"
         id="rect8606"
         style="fill:none;stroke:#000000;stroke-width:2;stroke-miterlimit:4;stroke-dasharray:none" />
      <path
         transform="matrix(1.199005,0,0,1.199005,-17.515555,-129.27606)"
         d="m 94.642859,646.02289 a 2.5892856,2.5892856 0 1 1 -5.178571,0 2.5892856,2.5892856 0 1 1 5.178571,0 z"
         sodipodi:ry="2.5892856"
         sodipodi:rx="2.5892856"
         sodipodi:cy="646.02289"
         sodipodi:cx="92.053574"
         id="path8608"
         style="fill:#000000;stroke:none"
         sodipodi:type="arc" />
    </g>
    <g
       style="opacity:0.15800009;display:inline"
       id="g8610"
       inkscape:tile-x0="82.85714"
       inkscape:tile-y0="641.04077"
       transform="translate(509.8151,26.953125)">
      <rect
         y="641.04077"
         x="82.85714"
         height="8.5714283"
         width="20"
         id="rect8612"
         style="fill:none;stroke:#000000;stroke-width:2;stroke-miterlimit:4;stroke-dasharray:none" />
      <path
         transform="matrix(1.199005,0,0,1.199005,-17.515555,-129.27606)"
         d="m 94.642859,646.02289 a 2.5892856,2.5892856 0 1 1 -5.178571,0 2.5892856,2.5892856 0 1 1 5.178571,0 z"
         sodipodi:ry="2.5892856"
         sodipodi:rx="2.5892856"
         sodipodi:cy="646.02289"
         sodipodi:cx="92.053574"
         id="path8614"
         style="fill:#000000;stroke:none"
         sodipodi:type="arc" />
    </g>
    <g
       style="opacity:0.15800009;display:inline"
       id="g8616"
       inkscape:tile-x0="82.85714"
       inkscape:tile-y0="641.04077"
       transform="translate(536.6901,14.84375)">
      <rect
         y="641.04077"
         x="82.85714"
         height="8.5714283"
         width="20"
         id="rect8618"
         style="fill:none;stroke:#000000;stroke-width:2;stroke-miterlimit:4;stroke-dasharray:none" />
      <path
         transform="matrix(1.199005,0,0,1.199005,-17.515555,-129.27606)"
         d="m 94.642859,646.02289 a 2.5892856,2.5892856 0 1 1 -5.178571,0 2.5892856,2.5892856 0 1 1 5.178571,0 z"
         sodipodi:ry="2.5892856"
         sodipodi:rx="2.5892856"
         sodipodi:cy="646.02289"
         sodipodi:cx="92.053574"
         id="path8620"
         style="fill:#000000;stroke:none"
         sodipodi:type="arc" />
    </g>
  </g>
  <g
     inkscape:label="Layer 1"
     inkscape:groupmode="layer"
     id="layer1"
     style="display:inline"
     sodipodi:insensitive="true">
    <path
       sodipodi:type="arc"
       style="fill:#000000;fill-rule:evenodd;stroke:none"
       id="path2985"
       sodipodi:cx="367.85715"
       sodipodi:cy="84.505043"
       sodipodi:rx="5"
       sodipodi:ry="5"
       d="m 372.85715,84.505043 a 5,5 0 1 1 -10,0 5,5 0 1 1 10,0 z"
       transform="translate(4.190094,0)" />
    <g
       id="g3767"
       transform="translate(-3.7890625e-6,66)">
      <path
         inkscape:connector-curvature="0"
         id="path2989"
         d="m 365.17274,277.63054 c 13.44004,13.44004 13.74901,13.749 13.74901,13.749"
         style="fill:none;stroke:#000000;stroke-width:2;stroke-linecap:butt;stroke-linejoin:miter;stroke-miterlimit:4;stroke-opacity:1;stroke-dasharray:none" />
      <path
         style="fill:none;stroke:#000000;stroke-width:2;stroke-linecap:butt;stroke-linejoin:miter;stroke-miterlimit:4;stroke-opacity:1;stroke-dasharray:none"
         d="m 378.92175,277.63054 c -13.44004,13.44004 -13.74901,13.749 -13.74901,13.749"
         id="path2991"
         inkscape:connector-curvature="0" />
    </g>
    <text
       xml:space="preserve"
       style="font-size:21.66845703px;font-style:normal;font-weight:normal;line-height:125%;letter-spacing:0px;word-spacing:0px;fill:#000000;fill-opacity:1;stroke:none;font-family:Sans"
       x="115.96313"
       y="126.62283"
       id="text4195"
       sodipodi:linespacing="125%"><tspan
         sodipodi:role="line"
         id="tspan4197"
         x="115.96313"
         y="126.62283">x</tspan></text>
    <text
       xml:space="preserve"
       style="font-size:21.66845703px;font-style:normal;font-weight:normal;line-height:125%;letter-spacing:0px;word-spacing:0px;fill:#000000;fill-opacity:1;stroke:none;font-family:Sans"
       x="53.403145"
       y="81.208786"
       id="text4199"
       sodipodi:linespacing="125%"><tspan
         sodipodi:role="line"
         id="tspan4201"
         x="53.403145"
         y="81.208786">y</tspan></text>
    <path
       style="fill:none;stroke:#000000;stroke-width:1px;stroke-linecap:butt;stroke-linejoin:miter;stroke-opacity:1;marker-end:url(#Arrow2Lend)"
       d="m 29.799501,119.99138 c 77.276669,0 77.276669,0 77.276669,0"
       id="path5573"
       inkscape:connector-curvature="0" />
    <path
       inkscape:connector-curvature="0"
       id="path5759"
       d="m 68.86946,159.02611 c 0,-77.27667 0,-77.27667 0,-77.27667"
       style="fill:none;stroke:#000000;stroke-width:1px;stroke-linecap:butt;stroke-linejoin:miter;stroke-opacity:1;marker-end:url(#Arrow2Lend)" />
    <path
       style="fill:none;stroke:#000000;stroke-width:1px;stroke-linecap:butt;stroke-linejoin:miter;stroke-opacity:1"
       d="m 547.9793,350.50504 c 14.28571,0 15.71428,0 15.71428,0"
       id="path5761"
       inkscape:connector-curvature="0" />
    <path
       inkscape:connector-curvature="0"
       id="path5776"
       d="m 547.9793,84.505043 c 14.28571,0 15.71428,0 15.71428,0"
       style="fill:none;stroke:#000000;stroke-width:1px;stroke-linecap:butt;stroke-linejoin:miter;stroke-opacity:1" />
    <path
       style="fill:none;stroke:#000000;stroke-width:1;stroke-linecap:butt;stroke-linejoin:miter;stroke-miterlimit:4;stroke-opacity:1;stroke-dasharray:2, 2;stroke-dashoffset:0"
       d="M 371.54724,83.790754 C 91.547241,642.36218 91.547241,643.79075 91.547241,643.79075"
       id="path5806"
       inkscape:connector-curvature="0"
       inkscape:tile-cx="231.54724"
       inkscape:tile-cy="363.79075"
       inkscape:tile-w="280"
       inkscape:tile-h="560"
       inkscape:tile-x0="91.547241"
       inkscape:tile-y0="83.790754" />
    <path
       inkscape:connector-curvature="0"
       id="path5808"
       d="m 372.54724,83.790754 c 280,558.571426 280,559.999996 280,559.999996"
       style="fill:none;stroke:#000000;stroke-width:1;stroke-linecap:butt;stroke-linejoin:miter;stroke-miterlimit:4;stroke-opacity:1;stroke-dasharray:2, 2;stroke-dashoffset:0" />
    <path
       style="fill:none;stroke:#000000;stroke-width:1px;stroke-linecap:butt;stroke-linejoin:miter;stroke-opacity:1"
       d="m 556.08898,85.14112 c 0,264.15489 -0.50508,264.65997 -0.50508,264.65997"
       id="path5818"
       inkscape:connector-curvature="0" />
    <rect
       style="fill:#ffffff;stroke:none"
       id="rect5826"
       width="129.29953"
       height="21.213203"
       x="493.45953"
       y="196.76297" />
    <text
       xml:space="preserve"
       style="font-size:12px;font-style:normal;font-weight:normal;line-height:125%;letter-spacing:0px;word-spacing:0px;fill:#000000;fill-opacity:1;stroke:none;font-family:Sans"
       x="502.04584"
       y="212.92542"
       id="text5820"
       sodipodi:linespacing="125%"><tspan
         sodipodi:role="line"
         id="tspan5822"
         x="502.04584"
         y="212.92542">Source to isocenter</tspan></text>
    <path
       style="fill:none;stroke:#000000;stroke-width:1px;stroke-linecap:butt;stroke-linejoin:miter;stroke-opacity:1"
       d="m 223.69359,84.505043 c 14.28571,0 15.71428,0 15.71428,0"
       id="path5830"
       inkscape:connector-curvature="0" />
    <path
       inkscape:connector-curvature="0"
       id="path5832"
       d="m 232.08514,84.024769 c 0,558.993201 -1.06882,560.062031 -1.06882,560.062031"
       style="fill:none;stroke:#000000;stroke-width:1;stroke-linecap:butt;stroke-linejoin:miter;stroke-miterlimit:4;stroke-opacity:1;stroke-dasharray:none" />
    <rect
       y="342.47723"
       x="173.45953"
       height="21.213203"
       width="129.29953"
       id="rect5834"
       style="fill:#ffffff;stroke:none" />
    <text
       xml:space="preserve"
       style="font-size:12px;font-style:normal;font-weight:normal;line-height:125%;letter-spacing:0px;word-spacing:0px;fill:#000000;fill-opacity:1;stroke:none;font-family:Sans"
       x="167.14285"
       y="356.82648"
       id="text5840"
       sodipodi:linespacing="125%"><tspan
         sodipodi:role="line"
         id="tspan5842"
         x="167.14285"
         y="356.82648">source to detector</tspan></text>
    <g
       id="g8740"
       transform="translate(7.421875,-13.913797)">
      <rect
         y="653.19415"
         x="99.781219"
         height="8.5714283"
         width="20"
         id="rect3771"
         style="fill:none;stroke:#000000;stroke-width:2;stroke-miterlimit:4;stroke-dasharray:none;display:inline" />
      <path
         transform="matrix(1.199005,0,0,1.199005,-0.591473,-117.12266)"
         d="m 94.642859,646.02289 a 2.5892856,2.5892856 0 1 1 -5.178571,0 2.5892856,2.5892856 0 1 1 5.178571,0 z"
         sodipodi:ry="2.5892856"
         sodipodi:rx="2.5892856"
         sodipodi:cy="646.02289"
         sodipodi:cx="92.053574"
         id="path3975"
         style="fill:#000000;stroke:none;display:inline"
         sodipodi:type="arc" />
    </g>
    <g
       transform="translate(55.146837,-1.7604156)"
       inkscape:tile-y0="641.04077"
       inkscape:tile-x0="82.85714"
       id="use4149"
       style="display:inline">
      <rect
         style="fill:none;stroke:#000000;stroke-width:2;stroke-miterlimit:4;stroke-dasharray:none"
         id="rect7930"
         width="20"
         height="8.5714283"
         x="82.85714"
         y="641.04077" />
      <path
         sodipodi:type="arc"
         style="fill:#000000;stroke:none"
         id="path7932"
         sodipodi:cx="92.053574"
         sodipodi:cy="646.02289"
         sodipodi:rx="2.5892856"
         sodipodi:ry="2.5892856"
         d="m 94.642859,646.02289 a 2.5892856,2.5892856 0 1 1 -5.178571,0 2.5892856,2.5892856 0 1 1 5.178571,0 z"
         transform="matrix(1.199005,0,0,1.199005,-17.515555,-129.27606)" />
    </g>
    <g
       transform="translate(85.486703,-1.7604156)"
       inkscape:tile-y0="641.04077"
       inkscape:tile-x0="82.85714"
       id="use4151"
       style="display:inline">
      <rect
         style="fill:none;stroke:#000000;stroke-width:2;stroke-miterlimit:4;stroke-dasharray:none"
         id="rect7936"
         width="20"
         height="8.5714283"
         x="82.85714"
         y="641.04077" />
      <path
         sodipodi:type="arc"
         style="fill:#000000;stroke:none"
         id="path7938"
         sodipodi:cx="92.053574"
         sodipodi:cy="646.02289"
         sodipodi:rx="2.5892856"
         sodipodi:ry="2.5892856"
         d="m 94.642859,646.02289 a 2.5892856,2.5892856 0 1 1 -5.178571,0 2.5892856,2.5892856 0 1 1 5.178571,0 z"
         transform="matrix(1.199005,0,0,1.199005,-17.515555,-129.27606)" />
    </g>
    <g
       transform="translate(114.38185,-1.7604156)"
       inkscape:tile-y0="641.04077"
       inkscape:tile-x0="82.85714"
       id="use4153"
       style="display:inline">
      <rect
         style="fill:none;stroke:#000000;stroke-width:2;stroke-miterlimit:4;stroke-dasharray:none"
         id="rect7942"
         width="20"
         height="8.5714283"
         x="82.85714"
         y="641.04077" />
      <path
         sodipodi:type="arc"
         style="fill:#000000;stroke:none"
         id="path7944"
         sodipodi:cx="92.053574"
         sodipodi:cy="646.02289"
         sodipodi:rx="2.5892856"
         sodipodi:ry="2.5892856"
         d="m 94.642859,646.02289 a 2.5892856,2.5892856 0 1 1 -5.178571,0 2.5892856,2.5892856 0 1 1 5.178571,0 z"
         transform="matrix(1.199005,0,0,1.199005,-17.515555,-129.27606)" />
    </g>
    <g
       transform="translate(142.79495,-1.7604156)"
       inkscape:tile-y0="641.04077"
       inkscape:tile-x0="82.85714"
       id="use4155"
       style="display:inline">
      <rect
         style="fill:none;stroke:#000000;stroke-width:2;stroke-miterlimit:4;stroke-dasharray:none"
         id="rect7948"
         width="20"
         height="8.5714283"
         x="82.85714"
         y="641.04077" />
      <path
         sodipodi:type="arc"
         style="fill:#000000;stroke:none"
         id="path7950"
         sodipodi:cx="92.053574"
         sodipodi:cy="646.02289"
         sodipodi:rx="2.5892856"
         sodipodi:ry="2.5892856"
         d="m 94.642859,646.02289 a 2.5892856,2.5892856 0 1 1 -5.178571,0 2.5892856,2.5892856 0 1 1 5.178571,0 z"
         transform="matrix(1.199005,0,0,1.199005,-17.515555,-129.27606)" />
    </g>
    <g
       transform="translate(169.73698,-1.7604156)"
       inkscape:tile-y0="641.04077"
       inkscape:tile-x0="82.85714"
       id="use4157"
       style="display:inline">
      <rect
         style="fill:none;stroke:#000000;stroke-width:2;stroke-miterlimit:4;stroke-dasharray:none"
         id="rect7954"
         width="20"
         height="8.5714283"
         x="82.85714"
         y="641.04077" />
      <path
         sodipodi:type="arc"
         style="fill:#000000;stroke:none"
         id="path7956"
         sodipodi:cx="92.053574"
         sodipodi:cy="646.02289"
         sodipodi:rx="2.5892856"
         sodipodi:ry="2.5892856"
         d="m 94.642859,646.02289 a 2.5892856,2.5892856 0 1 1 -5.178571,0 2.5892856,2.5892856 0 1 1 5.178571,0 z"
         transform="matrix(1.199005,0,0,1.199005,-17.515555,-129.27606)" />
    </g>
    <g
       transform="translate(197.47651,-1.7604156)"
       inkscape:tile-y0="641.04077"
       inkscape:tile-x0="82.85714"
       id="use4159"
       style="display:inline">
      <rect
         style="fill:none;stroke:#000000;stroke-width:2;stroke-miterlimit:4;stroke-dasharray:none"
         id="rect7960"
         width="20"
         height="8.5714283"
         x="82.85714"
         y="641.04077" />
      <path
         sodipodi:type="arc"
         style="fill:#000000;stroke:none"
         id="path7962"
         sodipodi:cx="92.053574"
         sodipodi:cy="646.02289"
         sodipodi:rx="2.5892856"
         sodipodi:ry="2.5892856"
         d="m 94.642859,646.02289 a 2.5892856,2.5892856 0 1 1 -5.178571,0 2.5892856,2.5892856 0 1 1 5.178571,0 z"
         transform="matrix(1.199005,0,0,1.199005,-17.515555,-129.27606)" />
    </g>
    <g
       transform="translate(224.16194,-1.7604156)"
       inkscape:tile-y0="641.04077"
       inkscape:tile-x0="82.85714"
       id="use4161"
       style="display:inline">
      <rect
         style="fill:none;stroke:#000000;stroke-width:2;stroke-miterlimit:4;stroke-dasharray:none"
         id="rect7966"
         width="20"
         height="8.5714283"
         x="82.85714"
         y="641.04077" />
      <path
         sodipodi:type="arc"
         style="fill:#000000;stroke:none"
         id="path7968"
         sodipodi:cx="92.053574"
         sodipodi:cy="646.02289"
         sodipodi:rx="2.5892856"
         sodipodi:ry="2.5892856"
         d="m 94.642859,646.02289 a 2.5892856,2.5892856 0 1 1 -5.178571,0 2.5892856,2.5892856 0 1 1 5.178571,0 z"
         transform="matrix(1.199005,0,0,1.199005,-17.515555,-129.27606)" />
    </g>
    <g
       transform="translate(250.84738,-1.7604156)"
       inkscape:tile-y0="641.04077"
       inkscape:tile-x0="82.85714"
       id="use4163"
       style="display:inline">
      <rect
         style="fill:none;stroke:#000000;stroke-width:2;stroke-miterlimit:4;stroke-dasharray:none"
         id="rect7972"
         width="20"
         height="8.5714283"
         x="82.85714"
         y="641.04077" />
      <path
         sodipodi:type="arc"
         style="fill:#000000;stroke:none"
         id="path7974"
         sodipodi:cx="92.053574"
         sodipodi:cy="646.02289"
         sodipodi:rx="2.5892856"
         sodipodi:ry="2.5892856"
         d="m 94.642859,646.02289 a 2.5892856,2.5892856 0 1 1 -5.178571,0 2.5892856,2.5892856 0 1 1 5.178571,0 z"
         transform="matrix(1.199005,0,0,1.199005,-17.515555,-129.27606)" />
    </g>
    <g
       transform="translate(276.98039,-1.7604156)"
       inkscape:tile-y0="641.04077"
       inkscape:tile-x0="82.85714"
       id="use4165"
       style="display:inline">
      <rect
         style="fill:none;stroke:#000000;stroke-width:2;stroke-miterlimit:4;stroke-dasharray:none"
         id="rect7978"
         width="20"
         height="8.5714283"
         x="82.85714"
         y="641.04077" />
      <path
         sodipodi:type="arc"
         style="fill:#000000;stroke:none"
         id="path7980"
         sodipodi:cx="92.053574"
         sodipodi:cy="646.02289"
         sodipodi:rx="2.5892856"
         sodipodi:ry="2.5892856"
         d="m 94.642859,646.02289 a 2.5892856,2.5892856 0 1 1 -5.178571,0 2.5892856,2.5892856 0 1 1 5.178571,0 z"
         transform="matrix(1.199005,0,0,1.199005,-17.515555,-129.27606)" />
    </g>
    <g
       transform="translate(302.97936,-1.7604156)"
       inkscape:tile-y0="641.04077"
       inkscape:tile-x0="82.85714"
       id="use4167"
       style="display:inline">
      <rect
         style="fill:none;stroke:#000000;stroke-width:2;stroke-miterlimit:4;stroke-dasharray:none"
         id="rect7984"
         width="20"
         height="8.5714283"
         x="82.85714"
         y="641.04077" />
      <path
         sodipodi:type="arc"
         style="fill:#000000;stroke:none"
         id="path7986"
         sodipodi:cx="92.053574"
         sodipodi:cy="646.02289"
         sodipodi:rx="2.5892856"
         sodipodi:ry="2.5892856"
         d="m 94.642859,646.02289 a 2.5892856,2.5892856 0 1 1 -5.178571,0 2.5892856,2.5892856 0 1 1 5.178571,0 z"
         transform="matrix(1.199005,0,0,1.199005,-17.515555,-129.27606)" />
    </g>
    <g
       transform="translate(329.9884,-1.7604156)"
       inkscape:tile-y0="641.04077"
       inkscape:tile-x0="82.85714"
       id="use4169"
       style="display:inline">
      <rect
         style="fill:none;stroke:#000000;stroke-width:2;stroke-miterlimit:4;stroke-dasharray:none"
         id="rect7990"
         width="20"
         height="8.5714283"
         x="82.85714"
         y="641.04077" />
      <path
         sodipodi:type="arc"
         style="fill:#000000;stroke:none"
         id="path7992"
         sodipodi:cx="92.053574"
         sodipodi:cy="646.02289"
         sodipodi:rx="2.5892856"
         sodipodi:ry="2.5892856"
         d="m 94.642859,646.02289 a 2.5892856,2.5892856 0 1 1 -5.178571,0 2.5892856,2.5892856 0 1 1 5.178571,0 z"
         transform="matrix(1.199005,0,0,1.199005,-17.515555,-129.27606)" />
    </g>
    <g
       transform="translate(356.12141,-1.7604156)"
       inkscape:tile-y0="641.04077"
       inkscape:tile-x0="82.85714"
       id="use4171"
       style="display:inline">
      <rect
         style="fill:none;stroke:#000000;stroke-width:2;stroke-miterlimit:4;stroke-dasharray:none"
         id="rect7996"
         width="20"
         height="8.5714283"
         x="82.85714"
         y="641.04077" />
      <path
         sodipodi:type="arc"
         style="fill:#000000;stroke:none"
         id="path7998"
         sodipodi:cx="92.053574"
         sodipodi:cy="646.02289"
         sodipodi:rx="2.5892856"
         sodipodi:ry="2.5892856"
         d="m 94.642859,646.02289 a 2.5892856,2.5892856 0 1 1 -5.178571,0 2.5892856,2.5892856 0 1 1 5.178571,0 z"
         transform="matrix(1.199005,0,0,1.199005,-17.515555,-129.27606)" />
    </g>
    <g
       transform="translate(383.68288,-1.7604156)"
       inkscape:tile-y0="641.04077"
       inkscape:tile-x0="82.85714"
       id="use4173"
       style="display:inline">
      <rect
         style="fill:none;stroke:#000000;stroke-width:2;stroke-miterlimit:4;stroke-dasharray:none"
         id="rect8002"
         width="20"
         height="8.5714283"
         x="82.85714"
         y="641.04077" />
      <path
         sodipodi:type="arc"
         style="fill:#000000;stroke:none"
         id="path8004"
         sodipodi:cx="92.053574"
         sodipodi:cy="646.02289"
         sodipodi:rx="2.5892856"
         sodipodi:ry="2.5892856"
         d="m 94.642859,646.02289 a 2.5892856,2.5892856 0 1 1 -5.178571,0 2.5892856,2.5892856 0 1 1 5.178571,0 z"
         transform="matrix(1.199005,0,0,1.199005,-17.515555,-129.27606)" />
    </g>
    <g
       transform="translate(411.12993,-1.7604156)"
       inkscape:tile-y0="641.04077"
       inkscape:tile-x0="82.85714"
       id="use4175"
       style="display:inline">
      <rect
         style="fill:none;stroke:#000000;stroke-width:2;stroke-miterlimit:4;stroke-dasharray:none"
         id="rect8008"
         width="20"
         height="8.5714283"
         x="82.85714"
         y="641.04077" />
      <path
         sodipodi:type="arc"
         style="fill:#000000;stroke:none"
         id="path8010"
         sodipodi:cx="92.053574"
         sodipodi:cy="646.02289"
         sodipodi:rx="2.5892856"
         sodipodi:ry="2.5892856"
         d="m 94.642859,646.02289 a 2.5892856,2.5892856 0 1 1 -5.178571,0 2.5892856,2.5892856 0 1 1 5.178571,0 z"
         transform="matrix(1.199005,0,0,1.199005,-17.515555,-129.27606)" />
    </g>
    <g
       transform="translate(439.56743,-1.7604156)"
       inkscape:tile-y0="641.04077"
       inkscape:tile-x0="82.85714"
       id="use4177"
       style="display:inline">
      <rect
         style="fill:none;stroke:#000000;stroke-width:2;stroke-miterlimit:4;stroke-dasharray:none"
         id="rect8014"
         width="20"
         height="8.5714283"
         x="82.85714"
         y="641.04077" />
      <path
         sodipodi:type="arc"
         style="fill:#000000;stroke:none"
         id="path8016"
         sodipodi:cx="92.053574"
         sodipodi:cy="646.02289"
         sodipodi:rx="2.5892856"
         sodipodi:ry="2.5892856"
         d="m 94.642859,646.02289 a 2.5892856,2.5892856 0 1 1 -5.178571,0 2.5892856,2.5892856 0 1 1 5.178571,0 z"
         transform="matrix(1.199005,0,0,1.199005,-17.515555,-129.27606)" />
    </g>
    <g
       transform="translate(468.28114,-1.7604156)"
       inkscape:tile-y0="641.04077"
       inkscape:tile-x0="82.85714"
       id="use4179"
       style="display:inline">
      <rect
         style="fill:none;stroke:#000000;stroke-width:2;stroke-miterlimit:4;stroke-dasharray:none"
         id="rect8020"
         width="20"
         height="8.5714283"
         x="82.85714"
         y="641.04077" />
      <path
         sodipodi:type="arc"
         style="fill:#000000;stroke:none"
         id="path8022"
         sodipodi:cx="92.053574"
         sodipodi:cy="646.02289"
         sodipodi:rx="2.5892856"
         sodipodi:ry="2.5892856"
         d="m 94.642859,646.02289 a 2.5892856,2.5892856 0 1 1 -5.178571,0 2.5892856,2.5892856 0 1 1 5.178571,0 z"
         transform="matrix(1.199005,0,0,1.199005,-17.515555,-129.27606)" />
    </g>
    <g
       transform="translate(498.21413,-1.7604156)"
       inkscape:tile-y0="641.04077"
       inkscape:tile-x0="82.85714"
       id="use4181"
       style="display:inline">
      <rect
         style="fill:none;stroke:#000000;stroke-width:2;stroke-miterlimit:4;stroke-dasharray:none"
         id="rect8026"
         width="20"
         height="8.5714283"
         x="82.85714"
         y="641.04077" />
      <path
         sodipodi:type="arc"
         style="fill:#000000;stroke:none"
         id="path8028"
         sodipodi:cx="92.053574"
         sodipodi:cy="646.02289"
         sodipodi:rx="2.5892856"
         sodipodi:ry="2.5892856"
         d="m 94.642859,646.02289 a 2.5892856,2.5892856 0 1 1 -5.178571,0 2.5892856,2.5892856 0 1 1 5.178571,0 z"
         transform="matrix(1.199005,0,0,1.199005,-17.515555,-129.27606)" />
    </g>
    <g
       transform="translate(528.67991,-1.7604156)"
       inkscape:tile-y0="641.04077"
       inkscape:tile-x0="82.85714"
       id="use4183"
       style="display:inline">
      <rect
         style="fill:none;stroke:#000000;stroke-width:2;stroke-miterlimit:4;stroke-dasharray:none"
         id="rect8032"
         width="20"
         height="8.5714283"
         x="82.85714"
         y="641.04077" />
      <path
         sodipodi:type="arc"
         style="fill:#000000;stroke:none"
         id="path8034"
         sodipodi:cx="92.053574"
         sodipodi:cy="646.02289"
         sodipodi:rx="2.5892856"
         sodipodi:ry="2.5892856"
         d="m 94.642859,646.02289 a 2.5892856,2.5892856 0 1 1 -5.178571,0 2.5892856,2.5892856 0 1 1 5.178571,0 z"
         transform="matrix(1.199005,0,0,1.199005,-17.515555,-129.27606)" />
    </g>
    <text
       xml:space="preserve"
       style="font-size:12px;font-style:normal;font-weight:normal;line-height:125%;letter-spacing:0px;word-spacing:0px;fill:#000000;fill-opacity:1;stroke:none;font-family:Sans"
       x="301.5625"
       y="596.11218"
       id="text8744"
       sodipodi:linespacing="125%"><tspan
         sodipodi:role="line"
         id="tspan8746"
         x="301.5625"
         y="596.11218">detector locations are based on equiangular </tspan><tspan
         sodipodi:role="line"
         x="301.5625"
         y="611.11218"
         id="tspan8748">positions projected into flat detector plane</tspan></text>
  </g>
</svg>
